<svg id="レイヤー_1" xmlns="http://www.w3.org/2000/svg" width="1792" height="1792" viewBox="396 -396 1792 1792"><style>.st0{fill:#3b8070}.st1{fill:#47b784}.st2{fill:#36495d}</style><path class="st0" d="M2092.2-299.5c-318.6 0-604.5 104.8-800 270.9 166 141 266.7 326.3 266.7 529.1s-100.7 388.1-266.7 529.1c195.5 166.1 481.4 270.9 800 270.9v-1600z"/><path class="st1" d="M1025.6 500.5c0-202.9 100.7-388.1 266.7-529.1-195.5-166.1-481.4-270.9-800-270.9v1600c318.6 0 604.5-104.8 800-270.9-166-141-266.7-326.2-266.7-529.1z"/><path class="st2" d="M1558.9 500.5c0-202.9-100.7-388.1-266.7-529.1-166 141-266.7 326.3-266.7 529.1s100.7 388.1 266.7 529.1c166-141 266.7-326.2 266.7-529.1z"/></svg>