<?xml version="1.0" encoding="utf-8"?>
<!-- Generator: Adobe Illustrator 19.0.0, SVG Export Plug-In . SVG Version: 6.00 Build 0)  -->
<svg version="1.1" id="レイヤー_1" xmlns="http://www.w3.org/2000/svg" xmlns:xlink="http://www.w3.org/1999/xlink" x="0px"
	 y="0px" width="1792px" height="1792px" viewBox="396 -396 1792 1792" style="enable-background:new 396 -396 1792 1792;"
	 xml:space="preserve">
<style type="text/css">
	.st0{fill:#3B8070;}
	.st1{fill:#47B784;}
	.st2{fill:#36495D;}
</style>
<g>
	<path class="st0" d="M2092.2-299.5c-318.6,0-604.5,104.8-800,270.9c166,141,266.7,326.3,266.7,529.1s-100.7,388.1-266.7,529.1
		c195.5,166.1,481.4,270.9,800,270.9V-299.5z"/>
	<path class="st1" d="M1025.6,500.5c0-202.9,100.7-388.1,266.7-529.1c-195.5-166.1-481.4-270.9-800-270.9v1600
		c318.6,0,604.5-104.8,800-270.9C1126.3,888.6,1025.6,703.4,1025.6,500.5z"/>
	<path class="st2" d="M1558.9,500.5c0-202.9-100.7-388.1-266.7-529.1c-166,141-266.7,326.3-266.7,529.1s100.7,388.1,266.7,529.1
		C1458.2,888.6,1558.9,703.4,1558.9,500.5z"/>
</g>
</svg>
